<mxfile host="drawio-plugin" modified="2022-02-22T09:43:57.467Z" agent="5.0 (Macintosh; Intel Mac OS X 12_0_1) AppleWebKit/537.36 (KHTML, like Gecko) Chrome/89.0.4389.114 Safari/537.36" etag="pVirp4I64ZFLUvNk5wZR" version="15.5.4" type="embed"><diagram id="23iRSUPoRavnBvh4doch" name="Page-1"><mxGraphModel dx="645" dy="528" grid="1" gridSize="10" guides="1" tooltips="1" connect="1" arrows="1" fold="1" page="1" pageScale="1" pageWidth="827" pageHeight="1169" math="0" shadow="0"><root><mxCell id="0"/><mxCell id="1" parent="0"/><mxCell id="2" style="edgeStyle=orthogonalEdgeStyle;rounded=0;orthogonalLoop=1;jettySize=auto;html=1;" parent="1" source="3" target="9" edge="1"><mxGeometry relative="1" as="geometry"/></mxCell><mxCell id="3" value="START" style="rounded=1;whiteSpace=wrap;html=1;" parent="1" vertex="1"><mxGeometry x="459" y="40" width="120" height="60" as="geometry"/></mxCell><mxCell id="38" value="YES" style="edgeStyle=orthogonalEdgeStyle;rounded=0;orthogonalLoop=1;jettySize=auto;html=1;" edge="1" parent="1" source="7" target="36"><mxGeometry relative="1" as="geometry"/></mxCell><mxCell id="51" value="NO" style="edgeStyle=orthogonalEdgeStyle;rounded=0;orthogonalLoop=1;jettySize=auto;html=1;" edge="1" parent="1" source="7" target="35"><mxGeometry relative="1" as="geometry"/></mxCell><mxCell id="7" value="if i is smaller than size of intik" style="rhombus;whiteSpace=wrap;html=1;" parent="1" vertex="1"><mxGeometry x="479" y="370" width="80" height="80" as="geometry"/></mxCell><mxCell id="8" style="edgeStyle=orthogonalEdgeStyle;rounded=0;orthogonalLoop=1;jettySize=auto;html=1;entryX=0.5;entryY=0;entryDx=0;entryDy=0;" parent="1" source="9" target="11" edge="1"><mxGeometry relative="1" as="geometry"/></mxCell><mxCell id="9" value="Input value into intik" style="shape=parallelogram;perimeter=parallelogramPerimeter;whiteSpace=wrap;html=1;fixedSize=1;" parent="1" vertex="1"><mxGeometry x="444" y="160" width="150" height="60" as="geometry"/></mxCell><mxCell id="10" style="edgeStyle=orthogonalEdgeStyle;rounded=0;orthogonalLoop=1;jettySize=auto;html=1;" parent="1" source="11" target="7" edge="1"><mxGeometry relative="1" as="geometry"/></mxCell><mxCell id="11" value="i = 0" style="rounded=0;whiteSpace=wrap;html=1;" parent="1" vertex="1"><mxGeometry x="459" y="270" width="120" height="60" as="geometry"/></mxCell><mxCell id="60" style="edgeStyle=orthogonalEdgeStyle;rounded=0;orthogonalLoop=1;jettySize=auto;html=1;" edge="1" parent="1" source="34" target="52"><mxGeometry relative="1" as="geometry"/></mxCell><mxCell id="34" value="Output first element of intik and &quot;is first&quot;" style="shape=parallelogram;perimeter=parallelogramPerimeter;whiteSpace=wrap;html=1;fixedSize=1;" parent="1" vertex="1"><mxGeometry x="150" y="380" width="150" height="60" as="geometry"/></mxCell><mxCell id="35" value="END" style="rounded=1;whiteSpace=wrap;html=1;" parent="1" vertex="1"><mxGeometry x="620" y="380" width="120" height="60" as="geometry"/></mxCell><mxCell id="40" value="YES" style="edgeStyle=orthogonalEdgeStyle;rounded=0;orthogonalLoop=1;jettySize=auto;html=1;" edge="1" parent="1" source="36" target="34"><mxGeometry relative="1" as="geometry"/></mxCell><mxCell id="43" value="NO" style="edgeStyle=orthogonalEdgeStyle;rounded=0;orthogonalLoop=1;jettySize=auto;html=1;" edge="1" parent="1" source="36" target="42"><mxGeometry relative="1" as="geometry"/></mxCell><mxCell id="36" value="if i is equal to 0" style="rhombus;whiteSpace=wrap;html=1;" vertex="1" parent="1"><mxGeometry x="340" y="370" width="80" height="80" as="geometry"/></mxCell><mxCell id="48" value="YES" style="edgeStyle=orthogonalEdgeStyle;rounded=0;orthogonalLoop=1;jettySize=auto;html=1;" edge="1" parent="1" source="42" target="47"><mxGeometry relative="1" as="geometry"/></mxCell><mxCell id="54" style="edgeStyle=orthogonalEdgeStyle;rounded=0;orthogonalLoop=1;jettySize=auto;html=1;" edge="1" parent="1" source="42" target="46"><mxGeometry relative="1" as="geometry"/></mxCell><mxCell id="55" value="NO" style="edgeLabel;html=1;align=center;verticalAlign=middle;resizable=0;points=[];" vertex="1" connectable="0" parent="54"><mxGeometry x="-0.3583" y="2" relative="1" as="geometry"><mxPoint as="offset"/></mxGeometry></mxCell><mxCell id="42" value="if i is equal to intik lenght-1" style="rhombus;whiteSpace=wrap;html=1;" vertex="1" parent="1"><mxGeometry x="340" y="490" width="80" height="80" as="geometry"/></mxCell><mxCell id="58" style="edgeStyle=orthogonalEdgeStyle;rounded=0;orthogonalLoop=1;jettySize=auto;html=1;" edge="1" parent="1" source="46" target="52"><mxGeometry relative="1" as="geometry"><Array as="points"><mxPoint x="120" y="640"/><mxPoint x="120" y="320"/></Array></mxGeometry></mxCell><mxCell id="46" value="Output i-element of intik, &quot;is after&quot;, i-1-element of intik, &quot;and before&quot;, i+1-element of intik" style="shape=parallelogram;perimeter=parallelogramPerimeter;whiteSpace=wrap;html=1;fixedSize=1;" vertex="1" parent="1"><mxGeometry x="305" y="610" width="150" height="60" as="geometry"/></mxCell><mxCell id="59" style="edgeStyle=orthogonalEdgeStyle;rounded=0;orthogonalLoop=1;jettySize=auto;html=1;" edge="1" parent="1" source="47" target="52"><mxGeometry relative="1" as="geometry"><Array as="points"><mxPoint x="130" y="530"/><mxPoint x="130" y="340"/></Array></mxGeometry></mxCell><mxCell id="47" value="Output i-element of intik and &quot;is last&quot;" style="shape=parallelogram;perimeter=parallelogramPerimeter;whiteSpace=wrap;html=1;fixedSize=1;" vertex="1" parent="1"><mxGeometry x="140" y="500" width="150" height="60" as="geometry"/></mxCell><mxCell id="57" style="edgeStyle=orthogonalEdgeStyle;rounded=0;orthogonalLoop=1;jettySize=auto;html=1;entryX=0;entryY=0;entryDx=0;entryDy=0;" edge="1" parent="1" source="52" target="7"><mxGeometry relative="1" as="geometry"><Array as="points"><mxPoint x="440" y="320"/><mxPoint x="440" y="390"/></Array></mxGeometry></mxCell><mxCell id="52" value="i = i + 1" style="rounded=0;whiteSpace=wrap;html=1;" vertex="1" parent="1"><mxGeometry x="165" y="290" width="120" height="60" as="geometry"/></mxCell></root></mxGraphModel></diagram></mxfile>